<?xml version="1.0" encoding="utf-8"?>
<svg version="1.1" xmlns:xlink="http://www.w3.org/1999/xlink" width="8px" height="14px" xmlns="http://www.w3.org/2000/svg">
  <g transform="matrix(1 0 0 1 -365 -251 )">
    <path d="M 7.73611111111111 6.384765625  C 7.91203703703704 6.55794270833333  8 6.76302083333333  8 7  C 8 7.23697916666667  7.91203703703704 7.44205729166667  7.73611111111111 7.615234375  L 1.51388888888889 13.740234375  C 1.33796296296296 13.9134114583333  1.12962962962963 14  0.888888888888889 14  C 0.648148148148148 14  0.439814814814815 13.9134114583333  0.263888888888889 13.740234375  C 0.087962962962963 13.5670572916667  0 13.3619791666667  0 13.125  L 0 0.875  C 0 0.638020833333331  0.087962962962963 0.432942708333331  0.263888888888889 0.259765625  C 0.439814814814815 0.0865885416666656  0.648148148148148 0  0.888888888888889 0  C 1.12962962962963 0  1.33796296296296 0.0865885416666656  1.51388888888889 0.259765625  L 7.73611111111111 6.384765625  Z " fill-rule="nonzero" fill="#aaaaaa" stroke="none" transform="matrix(1 0 0 1 365 251 )" />
  </g>
</svg>