<?xml version="1.0" encoding="utf-8"?>
<svg version="1.1" xmlns:xlink="http://www.w3.org/1999/xlink" width="16px" height="15px" xmlns="http://www.w3.org/2000/svg">
  <g transform="matrix(1 0 0 1 -1141 -189 )">
    <path d="M 15.1836734693878 2.998046875  C 15.4269707883153 3.095703125  15.6158463385354 3.23567708333333  15.750300120048 3.41796875  C 16.0064025610244 3.7890625  16.0640256102441 4.208984375  15.9231692677071 4.677734375  L 13.2821128451381 13.525390625  C 13.1604641856743 13.9420572916667  12.9155662264906 14.2919921875  12.547418967587 14.5751953125  C 12.1792717086835 14.8583984375  11.7871148459384 15  11.3709483793517 15  L 2.50660264105642 15  C 2.01360544217687 15  1.53821528611445 14.8258463541667  1.08043217286915 14.4775390625  C 0.62264905962385 14.1292317708333  0.304121648659464 13.701171875  0.12484993997599 13.193359375  C -0.0288115246098439 12.7571614583333  -0.0352140856342537 12.34375  0.105642256902761 11.953125  C 0.105642256902761 11.9270833333333  0.115246098439376 11.8391927083333  0.134453781512605 11.689453125  C 0.153661464585834 11.5397135416667  0.166466586634654 11.4192708333333  0.172869147659064 11.328125  C 0.179271708683473 11.2760416666667  0.169667867146859 11.2060546875  0.14405762304922 11.1181640625  C 0.118447378951581 11.0302734375  0.108843537414966 10.966796875  0.115246098439376 10.927734375  C 0.128051220488195 10.8561197916667  0.153661464585834 10.7877604166667  0.192076830732293 10.72265625  C 0.230492196878751 10.6575520833333  0.283313325330132 10.5810546875  0.350540216086435 10.4931640625  C 0.417767106842737 10.4052734375  0.470588235294118 10.3287760416667  0.509003601440576 10.263671875  C 0.656262505002001 10.0162760416667  0.800320128051221 9.71842447916666  0.941176470588235 9.3701171875  C 1.08203281312525 9.02180989583333  1.1780712284914 8.72395833333333  1.22929171668667 8.4765625  C 1.2484993997599 8.41145833333333  1.25010004001601 8.31380208333333  1.23409363745498 8.18359375  C 1.21808723489396 8.05338541666667  1.21648659463786 7.96223958333333  1.22929171668667 7.91015625  C 1.2484993997599 7.83854166666667  1.30292116846739 7.74739583333333  1.39255702280912 7.63671875  C 1.48219287715086 7.52604166666667  1.53661464585834 7.451171875  1.55582232893157 7.412109375  C 1.69027611044418 7.177734375  1.82472989195678 6.87825520833333  1.95918367346939 6.513671875  C 2.09363745498199 6.14908854166667  2.17366946778712 5.85611979166667  2.19927971188475 5.634765625  C 2.20568227290916 5.576171875  2.19767907162865 5.47200520833333  2.17527010804322 5.322265625  C 2.15286114445778 5.17252604166667  2.15446178471389 5.08138020833333  2.18007202881152 5.048828125  C 2.20568227290916 4.96419270833333  2.27611044417767 4.86490885416666  2.39135654261705 4.7509765625  C 2.50660264105642 4.63704427083333  2.57703081232493 4.56380208333333  2.60264105642257 4.53125  C 2.72428971588635 4.36197916666667  2.86034413765506 4.0869140625  3.01080432172869 3.7060546875  C 3.16126450580232 3.3251953125  3.24929971988796 3.01106770833333  3.27490996398559 2.763671875  C 3.28131252501 2.71158854166666  3.27170868347339 2.62858072916667  3.24609843937575 2.5146484375  C 3.22048819527811 2.40071614583333  3.2140856342537 2.314453125  3.22689075630252 2.255859375  C 3.23969587835134 2.20377604166667  3.26850740296118 2.14518229166667  3.31332533013205 2.080078125  C 3.35814325730292 2.01497395833333  3.41576630652261 1.94010416666667  3.48619447779112 1.85546875  C 3.55662264905962 1.77083333333333  3.61104441776711 1.70247395833333  3.64945978391357 1.650390625  C 3.70068027210884 1.572265625  3.75350140056022 1.47298177083333  3.80792316926771 1.3525390625  C 3.86234493797519 1.23209635416666  3.91036414565826 1.1181640625  3.95198079231693 1.0107421875  C 3.99359743897559 0.903320312499999  4.04481792717087 0.786132812499999  4.10564225690276 0.6591796875  C 4.16646658663465 0.532226562500001  4.22889155662265 0.428059895833333  4.29291716686675 0.346679687499999  C 4.35694277711085 0.265299479166665  4.44177671068427 0.188802083333332  4.54741896758703 0.1171875  C 4.6530612244898 0.0455729166666646  4.76830732292917 0.00813802083333315  4.89315726290516 0.00488281250000056  C 5.01800720288115 0.00162760416666463  5.17006802721088 0.0195312500000006  5.34933973589436 0.05859375  L 5.33973589435774 0.087890625  C 5.58303321328531 0.029296875  5.74629851940776 0  5.82953181272509 0  L 13.1380552220888 0  C 13.6118447378952 0  13.9767907162865 0.182291666666665  14.2328931572629 0.546875000000001  C 14.4889955982393 0.911458333333333  14.546618647459 1.33463541666666  14.405762304922 1.81640625  L 11.7743097238896 10.6640625  C 11.5438175270108 11.4388020833333  11.3149259703882 11.9384765625  11.0876350540216 12.1630859375  C 10.8603441376551 12.3876953125  10.4489795918367 12.5  9.85354141656663 12.5  L 1.5078031212485 12.5  C 1.33493397358944 12.5  1.21328531412565 12.548828125  1.14285714285714 12.646484375  C 1.07242897158864 12.7506510416667  1.06922769107643 12.890625  1.13325330132053 13.06640625  C 1.28691476590636 13.5221354166667  1.74789915966387 13.75  2.51620648259304 13.75  L 11.3805522208884 13.75  C 11.5662264905962 13.75  11.7454981992797 13.6995442708333  11.9183673469388 13.5986328125  C 12.0912364945978 13.4977213541667  12.203281312525 13.3626302083333  12.2545018007203 13.193359375  L 15.1356542617047 3.5546875  C 15.1804721888756 3.41145833333333  15.1964785914366 3.22591145833333  15.1836734693878 2.998046875  Z M 5.73349339735894 2.8125  L 5.53181272509004 3.4375  C 5.5062024809924 3.52213541666667  5.51260504201681 3.59537760416667  5.55102040816327 3.6572265625  C 5.58943577430972 3.71907552083333  5.65346138455382 3.75  5.74309723889556 3.75  L 11.5822328931573 3.75  C 11.6654661864746 3.75  11.7470988395358 3.71907552083333  11.8271308523409 3.6572265625  C 11.9071628651461 3.59537760416667  11.9599839935974 3.52213541666667  11.9855942376951 3.4375  L 12.187274909964 2.8125  C 12.2128851540616 2.72786458333333  12.2064825930372 2.65462239583333  12.1680672268908 2.5927734375  C 12.1296518607443 2.53092447916667  12.0656262505002 2.5  11.9759903961585 2.5  L 6.13685474189676 2.5  C 6.05362144857943 2.5  5.97198879551821 2.53092447916667  5.89195678271309 2.5927734375  C 5.81192476990796 2.65462239583333  5.75910364145658 2.72786458333333  5.73349339735894 2.8125  Z M 4.93637454981993 5.3125  L 4.73469387755102 5.9375  C 4.70908363345338 6.02213541666667  4.71548619447779 6.09537760416667  4.75390156062425 6.1572265625  C 4.79231692677071 6.21907552083333  4.85634253701481 6.25  4.94597839135654 6.25  L 10.7851140456182 6.25  C 10.8683473389356 6.25  10.9499799919968 6.21907552083333  11.0300120048019 6.1572265625  C 11.110044017607 6.09537760416667  11.1628651460584 6.02213541666667  11.1884753901561 5.9375  L 11.390156062425 5.3125  C 11.4157663065226 5.22786458333333  11.4093637454982 5.15462239583333  11.3709483793517 5.0927734375  C 11.3325330132053 5.03092447916667  11.2685074029612 5  11.1788715486194 5  L 5.33973589435774 5  C 5.25650260104042 5  5.17486994797919 5.03092447916667  5.09483793517407 5.0927734375  C 5.01480592236895 5.15462239583333  4.96198479391757 5.22786458333333  4.93637454981993 5.3125  Z " fill-rule="nonzero" fill="#000000" stroke="none" transform="matrix(1 0 0 1 1141 189 )" />
  </g>
</svg>