<?xml version="1.0" encoding="utf-8"?>
<svg version="1.1" xmlns:xlink="http://www.w3.org/1999/xlink" width="46px" height="50px" xmlns="http://www.w3.org/2000/svg">
  <g transform="matrix(1 0 0 1 -533 -302 )">
    <path d="M 3.53846153846154 38.3928571428571  L 3.53846153846154 46.4285714285714  L 11.5 46.4285714285714  L 11.5 38.3928571428571  L 3.53846153846154 38.3928571428571  Z M 13.2692307692308 38.3928571428571  L 13.2692307692308 46.4285714285714  L 22.1153846153846 46.4285714285714  L 22.1153846153846 38.3928571428571  L 13.2692307692308 38.3928571428571  Z M 3.53846153846154 27.6785714285714  L 3.53846153846154 36.6071428571429  L 11.5 36.6071428571429  L 11.5 27.6785714285714  L 3.53846153846154 27.6785714285714  Z M 13.2692307692308 27.6785714285714  L 13.2692307692308 36.6071428571429  L 22.1153846153846 36.6071428571429  L 22.1153846153846 27.6785714285714  L 13.2692307692308 27.6785714285714  Z M 3.53846153846154 17.8571428571429  L 3.53846153846154 25.8928571428571  L 11.5 25.8928571428571  L 11.5 17.8571428571429  L 3.53846153846154 17.8571428571429  Z M 23.8846153846154 38.3928571428571  L 23.8846153846154 46.4285714285714  L 32.7307692307692 46.4285714285714  L 32.7307692307692 38.3928571428571  L 23.8846153846154 38.3928571428571  Z M 13.2692307692308 17.8571428571429  L 13.2692307692308 25.8928571428571  L 22.1153846153846 25.8928571428571  L 22.1153846153846 17.8571428571429  L 13.2692307692308 17.8571428571429  Z M 34.5 38.3928571428571  L 34.5 46.4285714285714  L 42.4615384615385 46.4285714285714  L 42.4615384615385 38.3928571428571  L 34.5 38.3928571428571  Z M 23.8846153846154 27.6785714285714  L 23.8846153846154 36.6071428571429  L 32.7307692307692 36.6071428571429  L 32.7307692307692 27.6785714285714  L 23.8846153846154 27.6785714285714  Z M 13.8912259615385 13.1277901785714  C 14.0663060897436 12.9510788690476  14.1538461538462 12.7418154761905  14.1538461538462 12.5  L 14.1538461538462 4.46428571428572  C 14.1538461538462 4.22247023809524  14.0663060897436 4.01320684523809  13.8912259615385 3.83649553571428  C 13.7161458333333 3.65978422619047  13.5088141025641 3.57142857142857  13.2692307692308 3.57142857142857  L 11.5 3.57142857142857  C 11.2604166666667 3.57142857142857  11.0530849358974 3.65978422619047  10.8780048076923 3.83649553571428  C 10.7029246794872 4.01320684523809  10.6153846153846 4.22247023809524  10.6153846153846 4.46428571428572  L 10.6153846153846 12.5  C 10.6153846153846 12.7418154761905  10.7029246794872 12.9510788690476  10.8780048076923 13.1277901785714  C 11.0530849358974 13.3045014880952  11.2604166666667 13.3928571428571  11.5 13.3928571428571  L 13.2692307692308 13.3928571428571  C 13.5088141025641 13.3928571428571  13.7161458333333 13.3045014880952  13.8912259615385 13.1277901785714  Z M 34.5 27.6785714285714  L 34.5 36.6071428571429  L 42.4615384615385 36.6071428571429  L 42.4615384615385 27.6785714285714  L 34.5 27.6785714285714  Z M 23.8846153846154 17.8571428571429  L 23.8846153846154 25.8928571428571  L 32.7307692307692 25.8928571428571  L 32.7307692307692 17.8571428571429  L 23.8846153846154 17.8571428571429  Z M 34.5 17.8571428571429  L 34.5 25.8928571428571  L 42.4615384615385 25.8928571428571  L 42.4615384615385 17.8571428571429  L 34.5 17.8571428571429  Z M 35.1219951923077 13.1277901785714  C 35.2970753205128 12.9510788690476  35.3846153846154 12.7418154761905  35.3846153846154 12.5  L 35.3846153846154 4.46428571428572  C 35.3846153846154 4.22247023809524  35.2970753205128 4.01320684523809  35.1219951923077 3.83649553571428  C 34.9469150641026 3.65978422619047  34.7395833333333 3.57142857142857  34.5 3.57142857142857  L 32.7307692307692 3.57142857142857  C 32.4911858974359 3.57142857142857  32.2838541666667 3.65978422619047  32.1087740384615 3.83649553571428  C 31.9336939102564 4.01320684523809  31.8461538461538 4.22247023809524  31.8461538461538 4.46428571428572  L 31.8461538461538 12.5  C 31.8461538461538 12.7418154761905  31.9336939102564 12.9510788690476  32.1087740384615 13.1277901785714  C 32.2838541666667 13.3045014880952  32.4911858974359 13.3928571428571  32.7307692307692 13.3928571428571  L 34.5 13.3928571428571  C 34.7395833333333 13.3928571428571  34.9469150641026 13.3045014880952  35.1219951923077 13.1277901785714  Z M 44.9495192307692 8.203125  C 45.6498397435897 8.90997023809524  46 9.74702380952381  46 10.7142857142857  L 46 46.4285714285714  C 46 47.3958333333333  45.6498397435897 48.2328869047619  44.9495192307692 48.9397321428571  C 44.2491987179487 49.6465773809524  43.4198717948718 50  42.4615384615385 50  L 3.53846153846154 50  C 2.58012820512821 50  1.75080128205128 49.6465773809524  1.05048076923077 48.9397321428571  C 0.350160256410256 48.2328869047619  0 47.3958333333333  0 46.4285714285714  L 0 10.7142857142857  C 0 9.74702380952381  0.350160256410256 8.90997023809524  1.05048076923077 8.203125  C 1.75080128205128 7.49627976190476  2.58012820512821 7.14285714285715  3.53846153846154 7.14285714285715  L 7.07692307692308 7.14285714285715  L 7.07692307692308 4.46428571428572  C 7.07692307692308 3.23660714285715  7.51001602564103 2.18563988095238  8.37620192307692 1.31138392857143  C 9.24238782051282 0.437127976190477  10.2836538461538 0  11.5 0  L 13.2692307692308 0  C 14.4855769230769 0  15.526842948718 0.437127976190477  16.3930288461538 1.31138392857143  C 17.2592147435897 2.18563988095238  17.6923076923077 3.23660714285715  17.6923076923077 4.46428571428572  L 17.6923076923077 8  L 28.3076923076923 8  L 28.3076923076923 4.46428571428572  C 28.3076923076923 3.23660714285715  28.7407852564103 2.18563988095238  29.6069711538462 1.31138392857143  C 30.4731570512821 0.437127976190477  31.5144230769231 0  32.7307692307692 0  L 34.5 0  C 35.7163461538462 0  36.7576121794872 0.437127976190477  37.6237980769231 1.31138392857143  C 38.489983974359 2.18563988095238  38.9230769230769 3.23660714285715  38.9230769230769 4.46428571428572  L 38.9230769230769 7.14285714285715  L 42.4615384615385 7.14285714285715  C 43.4198717948718 7.14285714285715  44.2491987179487 7.49627976190476  44.9495192307692 8.203125  Z " fill-rule="nonzero" fill="#000000" stroke="none" transform="matrix(1 0 0 1 533 302 )" />
  </g>
</svg>