<?xml version="1.0" encoding="utf-8"?>
<svg version="1.1" xmlns:xlink="http://www.w3.org/1999/xlink" width="9px" height="9px" viewBox="404 361  9 9" xmlns="http://www.w3.org/2000/svg">
  <path d="M 404.5 363  A 1.5 1.5 0 0 1 406 361.5 L 411 361.5  A 1.5 1.5 0 0 1 412.5 363 L 412.5 368  A 1.5 1.5 0 0 1 411 369.5 L 406 369.5  A 1.5 1.5 0 0 1 404.5 368 L 404.5 363  Z " fill-rule="nonzero" fill="#f0f0f0" stroke="none" />
  <path d="M 404.5 363  A 1.5 1.5 0 0 1 406 361.5 L 411 361.5  A 1.5 1.5 0 0 1 412.5 363 L 412.5 368  A 1.5 1.5 0 0 1 411 369.5 L 406 369.5  A 1.5 1.5 0 0 1 404.5 368 L 404.5 363  Z " stroke-width="1" stroke="#d7d7d7" fill="none" />
</svg>