<?xml version="1.0" encoding="utf-8"?>
<svg version="1.1" xmlns:xlink="http://www.w3.org/1999/xlink" width="9px" height="9px" viewBox="420 409  9 9" xmlns="http://www.w3.org/2000/svg">
  <path d="M 420.5 411  A 1.5 1.5 0 0 1 422 409.5 L 427 409.5  A 1.5 1.5 0 0 1 428.5 411 L 428.5 416  A 1.5 1.5 0 0 1 427 417.5 L 422 417.5  A 1.5 1.5 0 0 1 420.5 416 L 420.5 411  Z " fill-rule="nonzero" fill="#ffffff" stroke="none" />
  <path d="M 420.5 411  A 1.5 1.5 0 0 1 422 409.5 L 427 409.5  A 1.5 1.5 0 0 1 428.5 411 L 428.5 416  A 1.5 1.5 0 0 1 427 417.5 L 422 417.5  A 1.5 1.5 0 0 1 420.5 416 L 420.5 411  Z " stroke-width="1" stroke="#d7d7d7" fill="none" />
  <path d="M 421.928571428571 413.5  L 423.857142857143 415.428571428571  " stroke-width="1.92857142857143" stroke="#d7d7d7" fill="none" />
  <path d="M 423.857142857143 415.428571428571  L 427.071428571429 410.928571428571  " stroke-width="1.92857142857143" stroke="#d7d7d7" fill="none" />
</svg>