<?xml version="1.0" encoding="utf-8"?>
<svg version="1.1" xmlns:xlink="http://www.w3.org/1999/xlink" width="9px" height="9px" viewBox="404 386  9 9" xmlns="http://www.w3.org/2000/svg">
  <path d="M 404.5 388  A 1.5 1.5 0 0 1 406 386.5 L 411 386.5  A 1.5 1.5 0 0 1 412.5 388 L 412.5 393  A 1.5 1.5 0 0 1 411 394.5 L 406 394.5  A 1.5 1.5 0 0 1 404.5 393 L 404.5 388  Z " fill-rule="nonzero" fill="#ffffff" stroke="none" />
  <path d="M 404.5 388  A 1.5 1.5 0 0 1 406 386.5 L 411 386.5  A 1.5 1.5 0 0 1 412.5 388 L 412.5 393  A 1.5 1.5 0 0 1 411 394.5 L 406 394.5  A 1.5 1.5 0 0 1 404.5 393 L 404.5 388  Z " stroke-width="1" stroke="#d7d7d7" fill="none" />
</svg>