<?xml version="1.0" encoding="utf-8"?>
<svg version="1.1" xmlns:xlink="http://www.w3.org/1999/xlink" width="3px" height="5px" xmlns="http://www.w3.org/2000/svg">
  <g transform="matrix(1 0 0 1 -398 -363 )">
    <path d="M 2.90104166666667 2.2802734375  C 2.96701388888889 2.34212239583333  3 2.41536458333333  3 2.5  C 3 2.58463541666667  2.96701388888889 2.65787760416667  2.90104166666667 2.7197265625  L 0.567708333333333 4.9072265625  C 0.501736111111111 4.96907552083333  0.423611111111111 5  0.333333333333333 5  C 0.243055555555556 5  0.164930555555556 4.96907552083333  0.0989583333333333 4.9072265625  C 0.0329861111111111 4.84537760416667  0 4.77213541666667  0 4.6875  L 0 0.3125  C 0 0.227864583333333  0.0329861111111111 0.154622395833333  0.0989583333333333 0.0927734375  C 0.164930555555556 0.0309244791666663  0.243055555555556 0  0.333333333333333 0  C 0.423611111111111 0  0.501736111111111 0.0309244791666663  0.567708333333333 0.0927734375  L 2.90104166666667 2.2802734375  Z " fill-rule="nonzero" fill="#d7d7d7" stroke="none" transform="matrix(1 0 0 1 398 363 )" />
  </g>
</svg>