<?xml version="1.0" encoding="utf-8"?>
<svg version="1.1" xmlns:xlink="http://www.w3.org/1999/xlink" width="9px" height="9px" viewBox="404 373  9 9" xmlns="http://www.w3.org/2000/svg">
  <path d="M 404.5 375  A 1.5 1.5 0 0 1 406 373.5 L 411 373.5  A 1.5 1.5 0 0 1 412.5 375 L 412.5 380  A 1.5 1.5 0 0 1 411 381.5 L 406 381.5  A 1.5 1.5 0 0 1 404.5 380 L 404.5 375  Z " fill-rule="nonzero" fill="#ffffff" stroke="none" />
  <path d="M 404.5 375  A 1.5 1.5 0 0 1 406 373.5 L 411 373.5  A 1.5 1.5 0 0 1 412.5 375 L 412.5 380  A 1.5 1.5 0 0 1 411 381.5 L 406 381.5  A 1.5 1.5 0 0 1 404.5 380 L 404.5 375  Z " stroke-width="1" stroke="#d7d7d7" fill="none" />
</svg>