<?xml version="1.0" encoding="utf-8"?>
<svg version="1.1" xmlns:xlink="http://www.w3.org/1999/xlink" width="16px" height="16px" xmlns="http://www.w3.org/2000/svg">
  <g transform="matrix(1 0 0 1 -2171 -515 )">
    <path d="M 15.8396793587174 7.35403726708075  C 15.9465597862391 7.46445824706694  16 7.59144237405107  16 7.73498964803313  C 16 7.87853692201518  15.9465597862391 8.00552104899931  15.8396793587174 8.11594202898551  L 8.3687374749499 15.8343685300207  C 8.26185704742819 15.9447895100069  8.13894455577822 16  8 16  C 7.86105544422178 16  7.73814295257181 15.9447895100069  7.6312625250501 15.8343685300207  L 0.160320641282565 8.11594202898551  C 0.0534402137608552 8.00552104899931  0 7.87853692201518  0 7.73498964803313  C 0 7.59144237405107  0.0534402137608552 7.46445824706694  0.160320641282565 7.35403726708075  L 0.961923847695391 6.52587991718426  C 1.0688042752171 6.41545893719807  1.19171676686707 6.36024844720497  1.33066132264529 6.36024844720497  C 1.46960587842351 6.36024844720497  1.59251837007348 6.41545893719807  1.69939879759519 6.52587991718426  L 8 13.0351966873706  L 14.3006012024048 6.52587991718426  C 14.4074816299265 6.41545893719807  14.5303941215765 6.36024844720497  14.6693386773547 6.36024844720497  C 14.8082832331329 6.36024844720497  14.9311957247829 6.41545893719807  15.0380761523046 6.52587991718426  L 15.8396793587174 7.35403726708075  Z M 15.8396793587174 0.993788819875777  C 15.9465597862391 1.10420979986197  16 1.2311939268461  16 1.37474120082816  C 16 1.51828847481021  15.9465597862391 1.64527260179434  15.8396793587174 1.75569358178054  L 8.3687374749499 9.47412008281573  C 8.26185704742819 9.58454106280193  8.13894455577822 9.63975155279503  8 9.63975155279503  C 7.86105544422178 9.63975155279503  7.73814295257181 9.58454106280193  7.6312625250501 9.47412008281573  L 0.160320641282565 1.75569358178054  C 0.0534402137608552 1.64527260179434  0 1.51828847481021  0 1.37474120082816  C 0 1.2311939268461  0.0534402137608552 1.10420979986197  0.160320641282565 0.993788819875777  L 0.961923847695391 0.165631469979296  C 1.0688042752171 0.0552104899930974  1.19171676686707 0  1.33066132264529 0  C 1.46960587842351 0  1.59251837007348 0.0552104899930974  1.69939879759519 0.165631469979296  L 8 6.67494824016563  L 14.3006012024048 0.165631469979296  C 14.4074816299265 0.0552104899930974  14.5303941215765 0  14.6693386773547 0  C 14.8082832331329 0  14.9311957247829 0.0552104899930974  15.0380761523046 0.165631469979296  L 15.8396793587174 0.993788819875777  Z " fill-rule="nonzero" fill="#02a7f0" stroke="none" transform="matrix(1 0 0 1 2171 515 )" />
  </g>
</svg>